<?xml version="1.0" encoding="utf-8"?>
<!-- Generator: Adobe Illustrator 15.0.0, SVG Export Plug-In . SVG Version: 6.00 Build 0)  -->
<!DOCTYPE svg PUBLIC "-//W3C//DTD SVG 1.1//EN" "http://www.w3.org/Graphics/SVG/1.1/DTD/svg11.dtd">
<svg version="1.1" id="Layer_1" xmlns="http://www.w3.org/2000/svg" xmlns:xlink="http://www.w3.org/1999/xlink" x="0px" y="0px"
	 width="144.691px" height="152.895px" viewBox="0 0 144.691 152.895" enable-background="new 0 0 144.691 152.895"
	 xml:space="preserve">
<g>
	<path fill-rule="evenodd" clip-rule="evenodd" d="M93.731,35.521c-7.35,11.852-14.193,24.208-21.121,36.48
		c22.1,4.927,45.336,6.939,65.281,14.88c2.354,0.938,6.297,2.764,6.719,4.56c0.543,2.312-1.76,8.402-3.119,9.84
		c-3.621,3.829-16.734,5.55-23.281,6.721c-21.947,3.926-41.826,5.972-63.119,11.28c-3.589,0.895-9.367,1.815-11.52,3.36
		c-1.645,1.18-3.463,5.56-4.801,7.92c-3.654,6.451-5.643,9.724-9.359,16.08c-1.834,3.136-3.712,6.483-6.24,6.24
		c-3.791-0.365-4.223-9.809-3.84-13.92c1.152-12.367,8.227-17.231,17.279-21.121c2.487-1.068,5.811-1.49,7.92-2.88
		c1.876-1.235,4.125-6.187,5.521-8.641c5.21-9.156,10.343-18.429,15.36-27.12c-17.784-3.837-36.072-6.691-52.32-12.959
		c-4.309-1.662-12.119-4.474-12.96-8.64c-0.694-3.439,1.528-9.217,3.12-11.28c3.439-4.458,12.687-6.726,19.199-8.4
		c22.252-5.722,47.984-7.694,72.24-10.08c6.33-8.174,10.85-22.28,19.68-27.6c0.094-0.056,1.068-0.255,1.201-0.24
		c5.396,0.606,1.469,12.34,0.479,15.36C112.661,25.712,107.958,35.937,93.731,35.521z M109.091,23.281
		c2.689-2.513,5.713-6.71,6.24-9.84c0.295-1.754,0.096-5.426-1.68-5.28c-7.316,3.245-11.174,12.027-15.361,19.2
		C102.167,27.6,106.155,26.023,109.091,23.281z M22.69,45.601c-6.486,1.58-13.207,2.763-18,6.72c7.942,6.141,18.883,9.229,30,12
		c11.316,2.821,23.448,4.896,35.041,7.2c6.961-11.678,13.824-23.454,20.398-35.52C66.935,38.006,43.001,40.654,22.69,45.601z
		 M48.851,113.521c20.439-5.862,44.291-8.894,66.721-12.72c7.418-1.266,14.975-2.355,21.6-5.04
		c-20.186-8.135-45.018-11.624-68.881-16.08C61.557,90.707,55.044,101.955,48.851,113.521z M22.45,133.922
		c0.239,4.022-0.105,10.811,3.121,11.04c2.863,0.203,6.18-6.986,7.68-9.601c2.592-4.518,4.552-8.047,6.24-11.279
		C32.769,126.319,26.761,129.271,22.45,133.922z"/>
	<path fill-rule="evenodd" clip-rule="evenodd" fill="#FFFFFF" d="M98.29,27.361c4.188-7.173,8.045-15.956,15.361-19.2
		c1.775-0.146,1.975,3.526,1.68,5.28c-0.527,3.13-3.551,7.328-6.24,9.84C106.155,26.023,102.167,27.6,98.29,27.361z"/>
	<path fill-rule="evenodd" clip-rule="evenodd" fill="#FFFFFF" d="M90.13,36.001c-6.574,12.066-13.438,23.842-20.398,35.52
		c-11.593-2.304-23.725-4.379-35.041-7.2c-11.117-2.771-22.058-5.859-30-12c4.793-3.958,11.514-5.14,18-6.72
		C43.001,40.654,66.935,38.006,90.13,36.001z"/>
	<path fill-rule="evenodd" clip-rule="evenodd" fill="#FFFFFF" d="M68.29,79.681c23.863,4.456,48.695,7.945,68.881,16.08
		c-6.625,2.685-14.182,3.774-21.6,5.04c-22.43,3.826-46.281,6.857-66.721,12.72C55.044,101.955,61.557,90.707,68.29,79.681z"/>
	<path fill-rule="evenodd" clip-rule="evenodd" fill="#FFFFFF" d="M39.491,124.082c-1.688,3.232-3.648,6.762-6.24,11.279
		c-1.5,2.614-4.816,9.804-7.68,9.601c-3.227-0.229-2.882-7.018-3.121-11.04C26.761,129.271,32.769,126.319,39.491,124.082z"/>
</g>
</svg>
